<svg xmlns="http://www.w3.org/2000/svg" width="400" height="400" viewBox="0 0 400 400">
  <g id="Group_7893" data-name="Group 7893" transform="translate(-611 -1618)">
    <circle id="Ellipse_1338" data-name="Ellipse 1338" cx="200" cy="200" r="200" transform="translate(611 1618)" fill="#00a3ad" opacity="0.2"/>
    <g id="profile" transform="translate(670.013 1668.483)">
      <g id="Group_5623" data-name="Group 5623" transform="translate(0 0)">
        <g id="Group_5622" data-name="Group 5622" transform="translate(0 0)">
          <g id="Group_5621" data-name="Group 5621">
            <g id="Group_5620" data-name="Group 5620">
              <g id="Group_5619" data-name="Group 5619">
                <g id="Group_5617" data-name="Group 5617">
                  <g id="Group_5616" data-name="Group 5616">
                    <path id="Path_4251" data-name="Path 4251" d="M294.359,253.969a43.483,43.483,0,0,0,21.482-37.521c-.015-44.431-.022-68.741-.022-68.741a83.089,83.089,0,1,0-166.178,0s-.007,24.31-.022,68.741A43.482,43.482,0,0,0,171.1,253.969l9.373,5.5a103.3,103.3,0,0,0,104.514,0Z" transform="translate(-91.742 -64.618)" fill="#efc984"/>
                    <g id="Group_5614" data-name="Group 5614" transform="translate(173.249 6.497)">
                      <path id="Path_4252" data-name="Path 4252" d="M348.123,149.526A83.113,83.113,0,0,0,297.3,72.934V270.3a103.249,103.249,0,0,0,19.994-9.011l9.373-5.5a43.484,43.484,0,0,0,21.482-37.521c-.014-44.431-.022-68.741-.022-68.741Z" transform="translate(-297.296 -72.934)" fill="#eabc6b"/>
                    </g>
                    <g id="Group_5615" data-name="Group 5615" transform="translate(88.268 154.532)">
                      <path id="Path_4253" data-name="Path 4253" d="M241.239,384.048l52.719-37.1-21.281-25.775V262.419H209.8v58.755l-21.28,25.775Z" transform="translate(-188.52 -262.419)" fill="#ffddce"/>
                    </g>
                    <path id="Path_4254" data-name="Path 4254" d="M319.315,352.066l-58.22-11.2a52.28,52.28,0,0,1-89.142,0l-58.22,11.2a47.1,47.1,0,0,0-38.2,46.247v18.1a199.376,199.376,0,0,0,118.584,56.894,31.742,31.742,0,0,0,10.345-.575l14.809-3.266a22.749,22.749,0,0,1,10.644.2,22.793,22.793,0,0,0,14.55-1.03,207.152,207.152,0,0,0,104.59-97.249A47.043,47.043,0,0,0,319.315,352.066Z" transform="translate(-75.537 -125.046)" fill="#4a80aa"/>
                    <path id="Path_4255" data-name="Path 4255" d="M389.873,405.144a47.035,47.035,0,0,0-13.549-33.052,200.146,200.146,0,0,1-152.842,107.7,201.912,201.912,0,0,0,24.739,1.6h.02c.26,0,.921,0,1.289,0h.02a199.365,199.365,0,0,0,140.322-58.145v-18.1Z" transform="translate(-107.9 -131.878)" fill="#407093"/>
                    <path id="Path_4256" data-name="Path 4256" d="M251.466,473.394c7.45-21.568,22.916-70.352,26.594-113.3a52.251,52.251,0,0,1-61.28,0c3.776,44.079,19.972,94.316,27.17,114.953Z" transform="translate(-106.434 -129.254)" fill="#fff"/>
                    <path id="Path_4257" data-name="Path 4257" d="M250.768,504.3c.72,2.084,1.366,3.922,1.92,5.474,4.1.043,2.675.017,4.334,0,.756-2.118,1.684-4.764,2.736-7.852Q255.3,503.209,250.768,504.3Z" transform="translate(-113.869 -160.277)" fill="#fff"/>
                    <path id="Path_4258" data-name="Path 4258" d="M295.127,151.077c-22.2-23.912-26.323-45.635-26.323-45.635a76.89,76.89,0,0,1-71.847,49.5q-1.506,0-3-.057a13.318,13.318,0,0,0-13.82,13.317v24.273a59.273,59.273,0,0,0,118.533,0V160.124A13.3,13.3,0,0,0,295.127,151.077Z" transform="translate(-98.419 -73.548)" fill="#ffddce"/>
                    <path id="Path_4259" data-name="Path 4259" d="M306.342,153.64C293,139.275,286.2,125.707,282.882,117.157v75.2A59.282,59.282,0,0,1,231.4,250.212a59.272,59.272,0,0,0,78.482-55.177V162.687A13.3,13.3,0,0,0,306.342,153.64Z" transform="translate(-109.633 -76.111)" fill="#ffcbbe"/>
                  </g>
                </g>
                <g id="Group_5618" data-name="Group 5618" transform="translate(73 196.83)">
                  <path id="Path_4260" data-name="Path 4260" d="M171.244,337.57a4.747,4.747,0,0,0-1.048,7.223l12.327,13.693a4.747,4.747,0,0,1-.375,6.725l-8.128,7.222a6.581,6.581,0,0,0-2.148,6.054c4.541,25.372,45.134,73.83,59.819,90.7q1.553.037,3.111.054c-7.1-19.9-29.277-86.028-29.277-136.219V316.561Z" transform="translate(-168.977 -316.561)" fill="#365e7d"/>
                  <path id="Path_4261" data-name="Path 4261" d="M322.325,337.57l-34.28-21.008v16.456c0,50.191-22.173,116.32-29.277,136.219q1.559-.015,3.111-.054c14.685-16.865,55.277-65.323,59.819-90.7a6.582,6.582,0,0,0-2.148-6.054l-8.128-7.222a4.747,4.747,0,0,1-.375-6.725l12.327-13.693A4.748,4.748,0,0,0,322.325,337.57Z" transform="translate(-188.619 -316.561)" fill="#365e7d"/>
                </g>
              </g>
              <path id="Path_4262" data-name="Path 4262" d="M340.846,175.56H331.86v29.688h8.986a14.844,14.844,0,1,0,0-29.687Z" transform="translate(-131.608 -88.887)" fill="#ffddce"/>
            </g>
          </g>
        </g>
      </g>
    </g>
  </g>
</svg>
